<svg width="20" height="21" viewBox="0 0 20 21" fill="none" xmlns="http://www.w3.org/2000/svg">
<path d="M3.41016 0L0 0.019531L0.011719 2.01953L2.08203 2.00781L5.375 9.91016L4.17578 11.8281C3.33984 13.1641 4.35938 15.0039 5.9375 15.0039H17.9961V13.0039H5.9375C5.82812 13.0039 5.8125 12.9805 5.87109 12.8867L7.05078 11.0039H14.5156C15.2422 11.0039 15.9141 10.6094 16.2656 9.97266L19.8672 3.48828C20.2383 2.82422 19.7578 2.00391 18.9961 2.00391H4.24609L3.41016 0ZM5.99609 16.0039C4.89062 16.0039 3.99609 16.8984 3.99609 18.0039C3.99609 19.1094 4.89062 20.0039 5.99609 20.0039C7.10156 20.0039 7.99609 19.1094 7.99609 18.0039C7.99609 16.8984 7.10156 16.0039 5.99609 16.0039ZM15.9961 16.0039C14.8906 16.0039 13.9961 16.8984 13.9961 18.0039C13.9961 19.1094 14.8906 20.0039 15.9961 20.0039C17.1016 20.0039 17.9961 19.1094 17.9961 18.0039C17.9961 16.8984 17.1016 16.0039 15.9961 16.0039Z" fill="black"/>
</svg>
