<svg width="167" height="211" viewBox="0 0 167 211" fill="none" xmlns="http://www.w3.org/2000/svg">
<path d="M1 94.2417C1 87.2305 8.66216 82.9118 14.6602 86.5422L70.6602 120.437C73.3542 122.067 75 124.987 75 128.136V193.548C75 200.402 67.6452 204.74 61.6468 201.425L5.64682 170.478C2.77978 168.894 1 165.877 1 162.601V94.2417Z" stroke="#738380" stroke-width="2"/>
<path d="M165.5 93.7417C165.5 86.7305 157.838 82.4118 151.84 86.0422L95.8398 119.937C93.1458 121.567 91.5 124.487 91.5 127.636V193.048C91.5 199.902 98.8548 204.24 104.853 200.925L160.853 169.978C163.72 168.394 165.5 165.377 165.5 162.101V93.7417Z" stroke="#738380" stroke-width="2"/>
<path d="M22.3411 58.9952C16.2692 62.5008 16.3601 71.2958 22.5032 74.675L79.8569 106.225C82.616 107.743 85.9677 107.708 88.6948 106.134L145.343 73.4278C151.278 70.001 151.358 61.4623 145.488 57.925L90.6871 24.9013C87.8814 23.2105 84.3787 23.1777 81.5419 24.8156L22.3411 58.9952Z" stroke="#738380" stroke-width="2"/>
</svg>
