<svg width="20" height="20" viewBox="0 0 20 20" fill="none" xmlns="http://www.w3.org/2000/svg">
<path d="M17.3503 8.01107L17.3047 7.94596L17.3438 7.81901L17.4512 7.83854L17.5488 7.89388L17.5618 7.88411L17.5293 7.97201L17.4414 8.01432L17.3503 8.01107ZM17.9036 8.60026L17.8646 8.46029L17.015 7.91016L16.8099 7.89714L16.6243 8.09896L16.5332 8.34961L16.6081 8.48633L17.9036 8.60026ZM4.85352 7.9362L4.75586 8.28776L5.07487 7.92643L5.10091 7.81576L4.96419 7.76042L4.85352 7.9362ZM5.04557 7.36654V7.38607L4.50195 7.64323L5.1888 7.50651L5.04557 7.36654ZM5.45898 8.05013L5.52734 7.99805L5.58594 7.86133L5.57617 7.8776L5.62175 7.7181L5.49479 7.69857L5.39388 7.72461L5.32878 7.79297L5.29622 7.91016L5.38411 8.02083L5.45898 8.05013ZM16.3444 5.5957L16.2467 5.54362L15.8105 5.51432L15.6283 5.36133L15.8496 4.54427L14.7656 6.29883L14.4792 6.51042L15.0098 6.71224L16.3444 5.5957ZM17.3665 10.4622L18.4473 12.1745L17.5749 10.5534L17.3665 10.4622ZM20 10C20 15.5241 15.5241 20 10 20C4.47917 20 0 15.5241 0 10C0 4.47591 4.47917 0 10 0C15.5241 0 20 4.47591 20 10ZM12.7246 5.96029L12.7279 6.81315L12.9004 7.24609L13.3105 7.15169L13.3333 6.87174L12.7246 5.96029ZM13.3333 4.43685L13.1868 4.37826L12.8776 4.44661L12.5814 4.38151L12.5684 4.74935L12.6009 4.83073L13.0013 4.86979L13.2552 4.66797L13.3333 4.43685ZM7.4056 1.78711L7.90365 1.76758L8.87695 1.13281C8.56445 1.17188 8.26172 1.22396 7.96224 1.29557L7.78646 1.52995L7.4056 1.78711ZM6.78385 2.07682L7.11263 2.3405L7.53255 2.39583L7.79622 2.14518L7.63672 2.1224L6.98893 1.7513L6.80013 1.71549L6.78385 2.07682ZM5.92448 2.03776L5.96029 2.08659L6.14583 2.07357L6.3444 1.98893L6.45182 1.85547L6.41276 1.80013C6.24675 1.87174 6.08724 1.95638 5.92448 2.03776ZM5.44596 3.05013L5.69336 3.08594L5.86914 2.88086L5.91797 2.63997L5.78451 2.57161L5.44922 2.94271L5.44596 3.05013ZM3.6556 3.73698L4.09505 3.98763L4.74284 3.68815L5.2474 3.14779L5.26042 2.65951L4.82422 2.74414L4.77865 2.72786C4.47266 2.94596 4.18294 3.18685 3.90625 3.44401L3.95182 3.49284L3.68815 3.67513L3.6556 3.73698ZM1.19466 10.804L0.999349 10.472C0.999349 10.5013 1.0026 10.5306 1.00586 10.5599L1.18815 10.9668L1.19466 10.804ZM10.0749 14.6875L9.6224 14.3522L8.33008 13.9681L7.57487 12.9785L6.64062 12.6237L4.44987 12.5488L3.78581 11.429L3.61003 11.4062L3.06641 11.6699L2.86784 11.4583L2.83203 11.1523L2.89714 10.8984L3.24219 10.4329L3.64909 10.2051L4.66797 10.3939L4.81771 10.8236L5.13021 10.8952L5.12695 10.2441L5.97982 9.00391L7.86133 7.95247L7.58789 7.91992L7.10286 7.55859L8.33984 7.20703L8.38542 7.31771L8.36589 7.42188L8.29102 7.52279L8.1543 7.61719L8.25195 7.75065L8.55469 7.76367L8.79883 7.67253L7.98828 5.71289L7.87435 5.72591L6.88477 5.25065L6.66341 5.4655L6.08724 6.9401L5.81055 6.68945L5.14974 6.38672L4.74284 5.92448L5.22135 5.20182L6.6862 4.06901L6.9043 3.45703L7.57812 3.88346L7.68555 4.11784L6.97591 4.69727L7.68229 5.13997L7.83529 5.05859L7.91016 5.06185L8.20964 4.58984L8.14128 4.51172L8.55469 4.05925L8.23893 3.51237L7.41862 2.81576L7.85156 2.73763L7.82878 2.6237L7.59115 2.57161L6.90755 2.95573L7.12891 2.5944L6.66992 2.74089L6.58854 3.86393L6.22396 4.11133L5.9668 3.87044L6.63737 2.61719L6.58529 2.5651L6.52344 2.53906H6.45182L6.3737 2.56836L5.30599 4.05599L5.32878 3.96484L5.4362 3.75977L5.39714 3.67513L5.21484 3.78255L3.67839 4.09831L3.39844 3.94531C1.88802 5.56966 0.963542 7.75065 0.979818 10.1432C0.979818 10.1725 0.986328 10.2018 0.986328 10.2311L0.989583 10.2181L1.21094 10.2995L2.02474 11.6797L4.4694 12.7572L4.80469 13.1283L4.8112 13.6198L4.50521 14.349L4.48893 14.7461L5.55013 16.7969L5.58268 17.9362C6.15234 18.2585 6.76107 18.5254 7.40234 18.7207L8.51237 17.2982L9.4987 16.5723L10.0749 14.6875ZM6.38021 4.66471L6.29557 4.54427L6.21419 4.52474L5.9082 4.91211L5.96029 4.9707H6.33789L6.45508 4.89583L6.38021 4.66471ZM10.1335 5.47201L12.6758 3.27474L13.2715 1.67643C12.2363 1.27279 11.1133 1.04818 9.9349 1.05794C9.77865 1.05794 9.62891 1.07422 9.47266 1.08398L9.35547 1.14909L9.11784 1.49089L9.06901 1.72201L9.16341 1.89128L9.81445 1.97591L10.0065 3.23893L9.68099 4.00065L9.60286 4.55729L9.80794 5.14974L10.1335 5.47201ZM18.6491 12.4121L18.7174 12.3698C18.916 11.6178 19.0267 10.8268 19.0202 10.013C19.0169 9.43034 18.9518 8.86719 18.8444 8.31706L18.7956 8.2194L18.8151 8.1543C18.5352 6.86198 17.972 5.68034 17.2038 4.66471L17.1484 4.6875L16.8197 4.35221L16.9401 4.31641C16.6569 3.97786 16.3477 3.66536 16.0189 3.3724L15.7422 3.35286L15.2409 3.56771L13.9225 5.35807L13.9844 5.58919L14.6029 6.06445V6.30859L12.8646 7.59115L12.8776 7.75716L13.0176 7.99479L13.0664 8.20638L12.3112 8.50586L12.2526 8.89323L12.3112 9.36849L11.1589 11.6341L11.1068 12.6367L11.9661 13.1445L13.3854 13.1413L14.0267 13.3236L15.2441 17.4089C16.9043 16.2207 18.138 14.4824 18.6914 12.4642L18.6491 12.4121ZM17.4349 9.31315L16.084 8.94857L15.9473 8.78255L15.9766 9.17643L15.9408 9.20573L14.8828 8.10221V8.10872L14.7103 8.15104L14.6842 8.10872L14.7363 8.32357L15.153 8.6263L15.1823 8.85091L15.1009 8.98763L15.0423 9.02995L14.9674 9.05925L14.5671 8.43425L13.9714 8.4375L12.7246 9.36198L14.3587 9.30013L15.0977 9.9707L15.4525 10.0944L17.4121 9.70052L17.4349 9.31315Z" fill="white"/>
</svg>
