<svg width="588" height="120" viewBox="0 0 588 120" fill="none" xmlns="http://www.w3.org/2000/svg">
<path d="M21.0535 0.149996H15.0535L36.8035 40.05V56.85L6.05352 0.149996H0.353516V120H5.75352V10.5L13.8535 25.35V120H19.2535V35.4L36.8035 67.95V120H42.2035V0.149996H36.8035V29.1L21.0535 0.149996ZM50.3035 120H55.7035V0.149996H50.3035V120ZM111.804 17.1C109.254 14.7 105.654 13.65 102.204 13.65C98.6035 13.65 95.3035 14.7 92.4535 17.1C89.4535 19.95 87.8035 23.55 87.8035 27.6V93.3C87.8035 97.35 89.4535 100.95 92.4535 103.8C95.3035 106.2 98.6035 107.25 102.204 107.25C105.654 107.25 109.254 106.2 111.804 103.8C115.404 100.95 117.054 97.35 117.054 93.3V27.6C117.054 23.55 115.404 19.95 111.804 17.1ZM111.504 93.3C111.504 96 110.454 98.25 108.504 99.9C106.704 101.55 104.454 102.15 102.204 102.15C99.8035 102.15 97.5535 101.55 95.7535 99.9C93.8035 98.25 92.7535 96 92.7535 93.3V27.6C92.7535 24.9 93.8035 22.65 95.7535 21C97.5535 19.35 99.8035 18.75 102.204 18.75C104.454 18.75 106.704 19.35 108.504 21C110.454 22.65 111.504 24.9 111.504 27.6V93.3ZM120.654 7.49999C115.854 2.25 108.654 0.299994 102.204 0.299994C95.0035 0.299994 88.8535 2.69999 84.2035 7.49999C78.6535 12.45 75.3535 19.95 75.3535 27.6V93.3C75.3535 100.95 78.6535 108.45 84.2035 113.4C89.4535 118.05 95.6035 120 102.204 120C109.254 120 115.854 117.6 120.654 113.4C126.204 108.45 129.504 100.95 129.504 93.3V27.6C129.504 19.95 126.204 12.45 120.654 7.49999ZM124.554 93.3C124.554 99.45 122.004 105.45 117.354 109.5C113.154 113.55 107.454 114.9 102.204 114.9C96.0535 114.9 91.2535 113.1 87.5035 109.5C82.8535 105.45 80.3035 99.45 80.3035 93.3V27.6C80.3035 21.45 82.8535 15.45 87.5035 11.4C91.8535 7.34999 96.6535 5.39999 102.204 5.39999C108.054 5.39999 113.604 7.8 117.354 11.4C122.004 15.45 124.554 21.45 124.554 27.6V93.3ZM142.425 0.149996L166.425 120H169.575H171.675L170.625 114.6L147.525 0.149996H142.425ZM183.975 114.6L179.775 94.2L198.675 0.149996H192.975L177.075 80.85L161.025 0.149996H155.775L174.525 94.2L177.075 107.7L179.475 120H182.775H185.025H188.025L212.175 0.149996H206.475L183.975 114.6ZM248.314 0.59999C235.114 3 224.914 14.7 224.914 28.35V52.95V120H230.314V77.85L238.414 82.5V120H243.814V85.5L262.264 96.15V120H267.664V93C259.714 88.35 251.764 84 243.814 79.35V70.05C251.764 74.7 259.714 79.05 267.664 83.7V28.35C267.664 20.55 261.064 13.65 252.964 13.65C245.014 13.65 238.414 20.55 238.414 28.35V76.2L230.314 71.55V28.35C230.314 15.9 240.514 5.55 252.964 5.55C265.414 5.55 275.764 15.9 275.764 28.35V120H281.164V28.35C281.164 10.8 265.114 -2.25001 248.314 0.59999ZM243.814 28.35C243.814 23.1 248.014 19.05 252.964 19.05C258.214 19.05 262.264 23.1 262.264 28.35V74.25L243.814 63.75V28.35ZM381.927 0.149996H375.927L354.927 47.25L351.777 39.75V34.5L366.927 0.149996H360.927L351.777 21.15V0.149996H346.227V40.8L381.027 120H386.877L357.927 54L381.927 0.149996ZM338.127 0.149996H332.727V120H338.127V56.25L346.227 74.85V120H351.777V87.3L366.027 120H372.027L338.127 42.6V0.149996ZM443.745 0.149996H398.445V5.55H424.845V13.65H398.445V19.05H412.245V101.1H398.445V106.5H412.245V114.6H398.445V120H443.745V114.6H417.345V106.5H443.745V101.1H429.945V19.05H443.745V13.65H429.945V5.55H443.745V0.149996ZM417.345 101.1V19.05H424.845V101.1H417.345ZM499.293 20.4C492.543 11.55 484.293 5.1 474.693 2.25C470.043 0.899996 465.843 0.149996 461.193 0.149996V103.35V108.75C466.443 108.6 470.943 107.4 474.693 105.45V120C476.643 119.4 478.443 118.65 480.093 117.9C487.743 114.45 494.343 108.3 499.293 101.85C507.693 90 511.743 76.2 511.743 62.4C511.743 48.6 507.693 31.95 499.293 20.4ZM480.093 27.15C481.743 28.5 482.793 30 483.993 31.65C489.843 39.6 492.843 52.2 492.843 62.4C492.843 72.6 489.843 82.8 483.993 90.6C482.793 92.25 481.743 93.75 480.093 95.1V27.15ZM494.943 98.55C492.243 102 482.643 111.75 480.093 111.75V102.15C483.393 99.6 486.093 96.9 488.343 93.75C494.943 84.75 498.243 73.8 498.243 62.4C498.243 51 494.943 37.5 488.343 28.5C486.093 25.35 483.393 22.65 480.093 20.1C478.893 19.05 475.293 17.25 474.693 16.8V99.3C472.143 100.95 469.443 102.15 466.593 102.6V5.84999C469.443 6.3 472.143 6.9 474.693 7.94999C483.093 11.1 489.993 16.95 494.943 23.7C502.743 34.35 506.343 49.65 506.343 62.4C506.343 75.15 502.593 87.9 494.943 98.55ZM584.09 16.8C583.04 14.85 581.24 12.75 578.54 10.2C576.29 8.24999 574.19 6.45 571.64 5.1C566.69 2.1 560.69 0.299994 554.69 0.299994C551.69 0.299994 548.84 0.749997 545.99 1.35C543.14 2.1 540.44 3.14999 537.59 4.8C532.19 7.94999 528.14 12.3 525.29 18C522.44 23.55 521.54 30 522.59 36.15C523.64 42.6 526.49 48.15 530.54 52.35C536.99 59.4 545.84 63 554.24 67.95C557.69 69.9 560.69 72 563.24 74.25C565.64 76.5 567.14 78.6 567.89 80.7C568.64 82.95 568.79 85.65 568.19 88.8C567.74 91.5 566.69 93.9 565.04 95.85C561.89 99.9 556.49 101.55 550.64 100.5C544.79 99.45 539.39 95.85 534.74 90.6L530.69 94.2C535.94 100.05 542.54 104.7 549.74 105.9C553.34 106.5 556.94 106.2 560.54 105.15C564.14 103.95 566.99 102 569.24 99.3C571.49 96.6 572.99 93.45 573.59 89.7C574.19 85.65 574.04 82.2 572.99 79.05C570.74 72.45 563.99 67.5 556.94 63.3C551.39 59.85 545.54 57.15 540.14 53.55C538.19 52.35 536.39 50.7 534.59 48.75C530.99 45 528.74 40.65 527.84 35.4C527.09 30.15 527.84 25.05 530.09 20.4C532.34 15.75 535.79 12 540.29 9.44999C542.54 8.24999 544.94 7.19999 547.34 6.59999C549.74 5.99999 552.14 5.7 554.69 5.7C559.79 5.7 564.59 7.05 568.94 9.75C570.89 10.8 572.84 12.3 574.79 14.1L577.34 16.8C578.09 17.85 578.84 18.6 579.59 19.8L584.09 16.8ZM572.69 24.15C569.39 18 561.74 13.8 554.69 13.8C550.94 13.8 547.64 14.7 544.49 16.5C541.34 18.15 539.09 20.55 537.44 24C535.79 27.3 535.34 30.6 535.94 34.05C536.39 37.5 537.89 40.5 540.59 43.35C542.54 45.3 544.64 46.95 547.04 48.3L549.89 49.95C553.64 52.2 557.39 54.15 561.14 56.4C564.89 58.65 568.64 61.05 572.24 64.2C575.69 67.35 578.99 71.4 580.64 76.35C582.29 81.15 582.29 86.4 581.54 91.05C580.79 95.85 578.84 100.5 575.39 104.55C572.24 108.45 568.04 111.15 563.09 112.8C558.29 114.45 553.19 114.6 548.39 113.85C543.59 113.1 539.09 111.15 535.04 108.6C531.29 106.2 527.69 103.2 524.54 99.6L520.49 103.05C523.94 107.1 527.84 110.4 532.19 113.25C536.84 116.25 541.94 118.2 547.49 119.25C553.34 120.3 559.19 119.85 564.74 117.9C570.59 115.95 575.54 112.65 579.59 108C583.64 103.35 586.04 97.65 586.79 91.8C587.24 89.25 587.54 86.4 587.39 83.55C587.24 80.55 586.79 77.55 585.74 74.55C584.69 71.7 583.19 69 581.54 66.45C579.74 64.05 577.79 62.1 575.84 60.3C571.79 56.7 568.04 54.15 563.99 51.75C559.94 49.35 556.19 47.4 552.59 45.15C547.94 42.3 546.29 41.55 544.49 39.6C542.84 37.65 541.64 35.55 541.19 33.15C540.89 30.75 541.19 28.5 542.24 26.4C543.29 24.15 544.94 22.5 547.19 21.15C549.44 19.8 551.99 19.2 554.69 19.2C559.94 19.2 565.04 22.35 568.19 27L572.69 24.15Z" fill="#8F9B99"/>
</svg>
