<svg width="167" height="207" viewBox="0 0 167 207" fill="none" xmlns="http://www.w3.org/2000/svg">
<path opacity="0.15" d="M83.5903 207C122.415 207 153.889 202.905 153.889 197.854C153.889 192.804 122.415 188.709 83.5903 188.709C44.7656 188.709 13.2919 192.804 13.2919 197.854C13.2919 202.905 44.7656 207 83.5903 207Z" fill="#45413C"/>
<path d="M162.96 149.773C140.918 122.291 115.111 107.713 108.535 78.1934H58.6459C52.0695 107.713 26.2632 122.291 4.22122 149.773C2.14843 152.684 1.02409 156.162 1.0011 159.733C0.967622 162.636 1.69864 165.497 3.12096 168.029C4.54327 170.561 6.60698 172.675 9.10544 174.161C11.6039 175.646 14.4495 176.45 17.3572 176.493C20.2649 176.535 23.1328 175.814 25.6736 174.402C26.5392 179.46 29.1659 184.05 33.0906 187.363C37.0154 190.677 41.986 192.5 47.126 192.512C50.0533 192.515 52.9505 191.922 55.6408 190.77C58.331 189.618 60.7578 187.931 62.7731 185.811C64.5286 189.868 67.4353 193.323 71.1345 195.751C74.8337 198.178 79.1637 199.471 83.5905 199.471C88.0173 199.471 92.3473 198.178 96.0465 195.751C99.7457 193.323 102.652 189.868 104.408 185.811C106.398 187.917 108.794 189.6 111.451 190.759C114.109 191.918 116.974 192.53 119.874 192.557C125.014 192.545 129.984 190.722 133.909 187.409C137.834 184.095 140.46 179.505 141.326 174.447C143.867 175.86 146.735 176.58 149.642 176.538C152.55 176.496 155.396 175.691 157.894 174.206C160.393 172.721 162.456 170.606 163.879 168.074C165.301 165.542 166.032 162.681 165.998 159.778C166.047 156.21 164.985 152.714 162.96 149.773Z" fill="#7ACACB"/>
<path d="M108.535 62.3473H58.6456V78.1934H108.535V62.3473Z" fill="#B0FFD9" stroke="#45413C" stroke-linecap="round" stroke-linejoin="round"/>
<path d="M114.567 37.7631C118.109 29.5647 119.059 20.4819 117.288 11.7301L115.837 3.85231C115.698 3.05282 115.28 2.3281 114.658 1.80618C114.035 1.28426 113.248 0.998722 112.435 1H102.321V7.15737C102.321 12.1165 100.348 16.8725 96.8351 20.3792C93.3223 23.8858 88.558 25.8558 83.5902 25.8558C78.6224 25.8558 73.858 23.8858 70.3452 20.3792C66.8325 16.8725 64.859 12.1165 64.859 7.15737V1H54.7451C53.9322 0.998722 53.1451 1.28426 52.5226 1.80618C51.9002 2.3281 51.4826 3.05282 51.3436 3.85231L49.8922 11.7301C48.1217 20.4819 49.0712 29.5647 52.6135 37.7631C55.8722 45.6015 57.9066 53.8927 58.6455 62.3473H108.535C109.274 53.8927 111.308 45.6015 114.567 37.7631Z" fill="#6EDDDE"/>
<path d="M49.5296 27.3499C49.8017 25.5389 50.9809 19.0193 51.3438 17.2084C51.4828 16.4089 51.9004 15.6841 52.5229 15.1622C53.1453 14.6403 53.9324 14.3548 54.7453 14.356H58.6911C59.5049 14.356 60.3107 14.5168 61.0621 14.829C61.8134 15.1413 62.4954 15.5989 63.0687 16.1755C63.6421 16.752 64.0955 17.4362 64.4028 18.1885C64.7101 18.9407 64.8652 19.7463 64.8592 20.5587C64.8592 25.5178 66.8327 30.2738 70.3455 33.7805C73.8582 37.2871 78.6226 39.2571 83.5904 39.2571C88.5582 39.2571 93.3225 37.2871 96.8353 33.7805C100.348 30.2738 102.322 25.5178 102.322 20.5587C102.316 19.7463 102.471 18.9407 102.778 18.1885C103.085 17.4362 103.539 16.752 104.112 16.1755C104.685 15.5989 105.367 15.1413 106.119 14.829C106.87 14.5168 107.676 14.356 108.49 14.356H112.435C113.248 14.3548 114.035 14.6403 114.658 15.1622C115.28 15.6841 115.698 16.4089 115.837 17.2084C116.2 19.0193 117.379 25.5389 117.651 27.3499C118.392 22.1589 118.27 16.8813 117.288 11.7301L115.837 3.85231C115.698 3.05282 115.28 2.3281 114.658 1.80618C114.035 1.28426 113.248 0.998722 112.435 1H102.322V7.15737C102.322 12.1165 100.348 16.8725 96.8353 20.3792C93.3225 23.8858 88.5582 25.8558 83.5904 25.8558C78.6226 25.8558 73.8582 23.8858 70.3455 20.3792C66.8327 16.8725 64.8592 12.1165 64.8592 7.15737V1H54.7453C53.9324 0.998722 53.1453 1.28426 52.5229 1.80618C51.9004 2.3281 51.4828 3.05282 51.3438 3.85231L49.8925 11.7301C48.911 16.8813 48.7884 22.1589 49.5296 27.3499Z" fill="#69F1F3"/>
<path d="M114.567 37.7631C118.109 29.5647 119.059 20.4819 117.288 11.7301L115.837 3.85231C115.698 3.05282 115.28 2.3281 114.658 1.80618C114.035 1.28426 113.248 0.998722 112.435 1H102.321V7.15737C102.321 12.1165 100.348 16.8725 96.8351 20.3792C93.3223 23.8858 88.558 25.8558 83.5902 25.8558C78.6224 25.8558 73.858 23.8858 70.3452 20.3792C66.8325 16.8725 64.859 12.1165 64.859 7.15737V1H54.7451C53.9322 0.998722 53.1451 1.28426 52.5226 1.80618C51.9002 2.3281 51.4826 3.05282 51.3436 3.85231L49.8922 11.7301C48.1217 20.4819 49.0712 29.5647 52.6135 37.7631C55.8722 45.6015 57.9066 53.8927 58.6455 62.3473H108.535C109.274 53.8927 111.308 45.6015 114.567 37.7631Z" stroke="#45413C" stroke-linecap="round" stroke-linejoin="round"/>
<path d="M121.189 104.407C115.097 96.701 110.777 87.7517 108.535 78.1934H58.646C56.404 87.7517 52.0841 96.701 45.9923 104.407C70.465 112.104 96.7163 112.104 121.189 104.407Z" fill="#7ACACB"/>
<path d="M162.96 149.773C140.918 122.291 115.111 107.713 108.535 78.1934H58.6458C52.0695 107.713 26.2632 122.291 4.22122 149.773C2.14843 152.684 1.02409 156.162 1.0011 159.733C0.967622 162.636 1.69864 165.497 3.12096 168.029C4.54327 170.561 6.60698 172.675 9.10544 174.161C11.6039 175.646 14.4495 176.45 17.3572 176.493C20.2649 176.535 23.1328 175.814 25.6736 174.402C26.5392 179.46 29.1659 184.05 33.0906 187.363C37.0154 190.677 41.986 192.5 47.126 192.512C50.0533 192.515 52.9505 191.922 55.6408 190.77C58.331 189.618 60.7578 187.931 62.7731 185.811C64.5286 189.868 67.4353 193.323 71.1345 195.751C74.8337 198.178 79.1637 199.471 83.5905 199.471C88.0173 199.471 92.3473 198.178 96.0465 195.751C99.7457 193.323 102.652 189.868 104.408 185.811C106.398 187.917 108.794 189.6 111.451 190.759C114.109 191.918 116.974 192.53 119.874 192.557C125.014 192.545 129.984 190.722 133.909 187.409C137.834 184.095 140.46 179.505 141.326 174.447C143.867 175.86 146.735 176.58 149.642 176.538C152.55 176.496 155.396 175.691 157.894 174.206C160.393 172.721 162.456 170.606 163.879 168.074C165.301 165.542 166.032 162.681 165.998 159.778C166.047 156.21 164.985 152.714 162.96 149.773V149.773Z" stroke="#45413C" stroke-linecap="round" stroke-linejoin="round"/>
<path d="M29.8461 165.121C33.1961 154.922 39.2262 145.806 47.3073 138.726" stroke="#45413C" stroke-linecap="round" stroke-linejoin="round"/>
<path d="M137.335 165.211C134.485 154.896 128.647 145.651 120.554 138.635" stroke="#45413C" stroke-linecap="round" stroke-linejoin="round"/>
<path d="M63.3627 177.119C63.5308 168.039 65.0595 159.035 67.8981 150.407" stroke="#45413C" stroke-linecap="round" stroke-linejoin="round"/>
<path d="M105.133 177.119C105.591 168.084 104.44 159.04 101.732 150.407" stroke="#45413C" stroke-linecap="round" stroke-linejoin="round"/>
</svg>
