<svg width="21" height="22" viewBox="0 0 21 22" fill="none" xmlns="http://www.w3.org/2000/svg">
<path d="M10.2289 0V6.83851C11.6757 7.17357 12.7844 8.5339 12.7844 10.1355C12.7844 11.1507 12.3517 11.995 11.5844 12.6719L14.647 15.2049H14.8363C15.5157 15.2049 16.114 15.7946 16.114 16.4714C16.114 17.1482 15.5968 17.7413 14.914 17.7413C14.2312 17.7413 13.6363 17.2286 13.6363 16.5518L9.96184 13.5162H9.37366C7.50096 13.5162 5.96628 11.995 5.96628 10.1355C5.96628 8.5339 7.07503 7.26069 8.52182 6.83851V0.0804137C3.74879 0.502586 0 4.47636 0 9.29113C0 11.4891 0.780857 13.4425 1.97073 15.0474C2.82258 16.1464 3.41075 17.4967 3.41075 18.847V19.2725C3.41075 19.6947 3.67442 20.0297 4.10034 20.1168L12.6255 21.963C13.136 22.1305 13.6363 21.7083 13.6363 21.1186V19.8521L15.0763 19.9292C17.0369 20.1001 18.7507 18.5789 18.7507 16.5518V13.9384L20.5355 13.0136C20.9614 12.8461 21.1372 12.3268 20.8803 11.9046L18.6696 8.18209C18.1558 3.87326 14.6571 0.422172 10.2289 0ZM9.37366 8.44679C8.43393 8.44679 7.66997 9.20402 7.66997 10.1355C7.66997 11.0703 8.43393 11.8275 9.37366 11.8275C10.3168 11.8275 11.0807 11.0703 11.0807 10.1355C11.0807 9.20402 10.3168 8.44679 9.37366 8.44679Z" fill="white"/>
</svg>
