<svg width="25" height="19" viewBox="0 0 25 19" fill="none" xmlns="http://www.w3.org/2000/svg">
<path d="M0 0V0.966017H7.6926V1.93203H1.9222V2.89997H0V3.86598H6.7315V4.832H1.9222V5.79802H0V6.76595H5.7685V7.73197H1.9222V8.69799H0V9.664H4.8074V10.6319H1.9222V14.4979C1.9222 15.0787 2.30549 15.4639 2.8852 15.4639H3.8463C4.03699 13.8213 5.48055 12.4739 7.21205 12.4739C8.94355 12.4739 10.3852 13.7236 10.5778 15.4639H13.4611C14.0408 15.4639 14.4241 15.0787 14.4241 14.4979V0.966017C14.4241 0.385257 14.0408 0 13.4611 0H0ZM16.3463 3.86598C15.7685 3.86598 15.3852 4.25124 15.3852 4.832V14.4979C15.3852 14.9809 15.7685 15.4639 16.3463 15.4639C16.5389 13.8213 17.9805 12.4739 19.7121 12.4739C21.4436 12.4739 22.8852 13.7236 23.0778 15.4639H24.0389C24.6167 15.4639 25 15.0787 25 14.4979V9.664C25 8.79574 24.2201 7.73197 24.2201 7.73197L22.1167 4.832C21.6342 4.25124 21.3463 3.86598 20.6732 3.86598H16.3463ZM18.2704 5.79802H20.5835C20.7742 5.79802 20.9744 5.9801 20.9744 5.9801L22.9882 8.78807C23.1789 9.07941 23.3772 9.38225 23.3772 9.57392H18.2704V5.79802ZM7.21205 13.7121C5.99161 13.7121 4.98856 14.7203 4.98856 15.9469C4.98856 17.1736 5.99161 18.1818 7.21205 18.1818C8.4325 18.1818 9.43554 17.1736 9.43554 15.9469C9.43554 14.7203 8.4325 13.7121 7.21205 13.7121ZM19.7121 13.7121C18.4916 13.7121 17.4886 14.7203 17.4886 15.9469C17.4886 17.1736 18.4916 18.1818 19.7121 18.1818C20.9325 18.1818 21.9355 17.1736 21.9355 15.9469C21.9355 14.7203 20.9325 13.7121 19.7121 13.7121Z" fill="white"/>
</svg>
