<svg width="837" height="148" viewBox="0 0 837 148" fill="none" xmlns="http://www.w3.org/2000/svg">
<path d="M663.608 146.739C668 145.198 670.491 142.45 671.933 137.357C672.851 134.275 672.851 132.935 672.195 129.115C671.147 122.816 669.442 119.734 665.116 116.383C658.888 111.693 653.84 106.466 649.776 100.703C645.711 94.9403 642.63 88.9764 642.63 86.7651C642.63 82.1414 639.484 77.0487 636.73 77.0487C634.567 77.0487 631.879 80.2652 630.241 84.7548C626.045 96.1465 627.815 111.827 635.092 127.038C640.729 138.966 646.891 145.399 654.561 147.275C658.56 148.347 659.347 148.28 663.608 146.739Z" fill="white"/>
<path d="M229.375 145.399C243.142 142.517 260.448 122.414 265.496 103.585C267.003 97.8888 267.003 87.7033 265.496 83.6827C264.185 80.0642 261.759 78.5899 259.071 79.5951C256.974 80.4662 255.728 82.0074 253.63 86.2961C251.467 90.7187 247.927 94.3372 241.109 99.229C234.554 103.987 230.686 105.93 223.672 108.208C216.592 110.554 214.363 111.961 211.807 115.713C209.643 118.997 207.349 125.564 207.349 128.579C207.349 139.368 218.297 147.744 229.375 145.399Z" fill="white"/>
<path d="M564.096 133.672C573.602 131.26 581.075 125.095 585.205 116.45C591.629 103.048 588.614 88.5073 577.994 81.0022C573.274 77.7188 570.324 76.9817 559.376 76.3786C544.561 75.5074 537.547 72.9611 530.86 65.9921C520.634 55.3375 520.306 39.1211 530.139 28.6676C535.58 22.8378 540.038 20.6935 554.066 17.0749C571.242 12.5853 576.814 11.7812 590.842 11.7141C605.592 11.7141 610.312 12.5183 621.915 16.8739C638.828 23.2398 649.382 24.8481 673.441 24.58C689.174 24.446 689.633 24.513 696.385 26.3223C710.02 30.0078 716.379 33.6934 727.261 44.0129C746.075 61.9045 758.727 70.7498 772.231 75.5074C776.624 76.9817 778.459 77.2497 785.211 77.3167C792.422 77.3167 793.471 77.1827 797.47 75.4404C806.32 71.6879 811.04 65.1879 811.63 55.8736C811.826 52.121 811.63 50.1107 810.777 47.8324C808.221 40.9974 804.091 38.384 792.226 36.2397C783.835 34.6985 781.409 33.6263 779.639 30.6109C778 27.8635 778 25.9202 779.639 22.4357C781.934 17.544 787.243 14.7296 794.323 14.7296C798.715 14.7296 809.925 13.1884 814.055 12.0492C824.806 9.03375 835.95 3.53895 836.999 0.791553C837.261 -0.0125643 768.692 -0.0795741 418.434 0.0544454C188.01 0.188465 -0.261829 0.456504 0.000378153 0.657533C0.328113 0.925572 5.11356 2.4668 10.6857 4.20905C22.6166 7.76057 30.6798 11.1781 46.9373 19.4873C60.8349 26.6573 70.5369 30.8119 78.2068 32.9562C82.9267 34.2294 85.3522 34.4975 93.9398 34.4975C105.084 34.4975 107.903 33.8944 118.326 29.7398C126.848 26.3893 131.109 26.5903 135.436 30.7449C142.319 37.1779 140.418 47.9664 131.634 52.188C130.06 52.9252 124.423 54.3324 119.113 55.2705C108.034 57.2138 103.38 58.487 99.0531 60.6983C90.8588 64.9199 87.5155 70.8838 86.0733 83.5486C85.4833 88.9764 85.4833 90.9197 86.3355 95.0073C88.4332 105.26 94.2676 112.497 105.019 118.193C113.541 122.682 119.244 124.09 129.339 124.09C141.926 124.09 152.677 121.208 166.705 113.904C185.716 103.987 200.531 92.5279 227.343 66.9302C242.552 52.4561 247.862 47.9664 257.826 41.1984C280.508 25.7862 302.862 17.9461 324.691 17.812C335.311 17.745 340.031 19.0182 348.553 24.312C351.438 26.1212 355.174 28.4666 356.813 29.4717C360.419 31.6831 368.941 35.1006 373.857 36.3067C379.757 37.7139 401.587 37.3789 414.173 35.6366C430.89 33.2913 441.378 33.8944 452.85 37.848C469.436 43.4768 481.367 55.2035 495.592 79.7291C498.476 84.6878 503.262 92.997 506.277 98.1567C518.47 119.198 527.713 128.579 540.365 132.801C545.938 134.61 558.59 135.079 564.096 133.672Z" fill="white"/>
<path d="M308.631 130.924C314.793 127.708 321.676 116.852 323.053 108.342C323.577 104.925 322.79 100.1 321.479 98.3577C319.775 96.2804 317.939 97.2856 316.104 101.239C314.203 105.461 309.221 109.95 302.862 113.234C300.305 114.507 297.683 116.383 296.962 117.389C295.389 119.6 294.667 125.765 295.847 127.909C297.749 131.595 304.435 133.203 308.631 130.924Z" fill="white"/>
<path d="M466.748 128.981C472.976 125.765 476.843 119.533 478.089 110.554C480.121 96.0794 473.303 73.8992 463.405 63.1106C456.784 55.8736 448.917 52.9251 446.033 56.6777C444.132 59.157 444.328 60.9663 446.95 66.9972C448.196 69.8116 449.507 74.1672 449.9 76.7806C450.949 84.5537 450.687 96.7495 449.245 103.786C447.672 111.425 447.606 114.239 448.983 118.394C451.277 125.162 455.341 129.249 461.045 130.321C462.815 130.589 464.191 130.321 466.748 128.981Z" fill="white"/>
<path d="M814.842 125.899C822.381 122.079 823.036 112.832 816.153 107.605C814.449 106.332 813.531 106.198 807.369 106.399C797.929 106.734 792.553 105.327 787.965 101.44C785.67 99.4969 785.277 99.4299 783.507 101.239C779.639 105.193 786.85 117.724 796.159 123.151C803.304 127.306 810.122 128.311 814.842 125.899Z" fill="white"/>
<path d="M30.4176 124.358C37.4975 122.28 45.2329 116.316 47.6584 110.956C50.0184 105.796 49.6906 101.172 46.9373 101.172C46.4129 101.172 44.774 102.043 43.2663 103.183C39.6608 105.796 34.2853 106.801 26.9432 106.265C22.3544 105.93 20.7811 106.064 19.2078 106.868C14.7501 109.213 13.2423 115.646 16.1267 119.935C19.0111 124.358 24.5833 126.1 30.4176 124.358Z" fill="white"/>
<path d="M733.62 123.084C741.29 120.136 744.568 112.363 742.011 103.585C740.241 97.6876 738.274 95.6103 730.277 91.3217C724.246 88.1052 721.886 86.363 716.576 81.2032C712.643 77.3167 709.693 73.8322 708.906 71.9559C708.119 70.3477 706.939 67.6673 706.218 66.126C703.924 60.9663 699.597 60.6312 697.368 65.3889C693.763 73.1621 694.549 84.1517 699.663 96.6825C703.858 107.002 712.905 118.26 719.853 121.744C724.049 123.821 730.146 124.425 733.62 123.084Z" fill="white"/>
<path d="M382.248 109.749C397.719 107.27 414.763 95.1413 420.991 82.2084C424.072 75.7754 425.252 70.2806 424.269 66.7291C423.089 62.2395 418.828 61.6364 414.37 65.3219C410.306 68.7394 405.651 70.8167 399.948 71.9559C390.508 73.8322 386.05 73.9662 378.118 72.693C369.531 71.2858 367.433 71.6208 362.779 75.0383C355.24 80.6672 352.945 90.5176 357.272 98.5588C361.795 107.136 371.563 111.492 382.248 109.749Z" fill="white"/>
<path d="M54.9349 73.8322C60.0481 71.4198 67.5869 60.8993 68.7013 54.7344C69.0947 52.5901 68.9635 51.92 67.6525 50.5128C66.4069 49.1726 65.5547 48.9045 62.0803 48.9045C54.1482 48.9045 44.2495 53.1262 41.2996 57.8168C35.2686 67.2652 44.9706 78.5899 54.9349 73.8322Z" fill="white"/>
<path d="M315.186 70.3477C319.513 69.2085 321.283 68.0694 326.003 63.0436C333.279 55.3375 339.113 44.4819 339.113 38.518C339.113 33.6933 334.262 30.9459 327.379 31.8171C318.923 32.8892 306.664 37.7139 301.879 41.8685C300.764 42.8067 299.125 45.219 298.207 47.2293C293.684 56.9457 298.535 68.0023 308.368 70.2807C311.646 71.0848 312.433 71.0848 315.186 70.3477Z" fill="white"/>
<path d="M671.802 67.7343C674.621 66.5282 675.735 64.3838 675.735 60.2962C675.735 55.2035 674.359 53.3272 668.59 50.2448C663.083 47.2293 657.446 41.8686 655.807 37.982C651.874 28.6006 647.022 39.1212 650.497 49.5747C653.053 57.4148 658.495 64.9869 663.28 67.2653C665.574 68.4044 669.639 68.6055 671.802 67.7343Z" fill="white"/>
<path d="M592.088 64.9869C595.431 64.1827 599.43 60.9663 601.593 57.3478C603.298 54.5333 603.56 53.4612 603.56 49.3066C603.625 43.5437 602.118 40.2603 597.726 36.3067C594.251 33.1572 586.647 30.1418 578.387 28.5335C569.799 26.8583 564.621 27.3944 561.998 30.2758C559.311 33.2242 560.884 40.5283 565.801 48.1674C569.341 53.5952 576.552 61.1003 580.157 63.1106C583.697 65.1209 588.679 65.858 592.088 64.9869Z" fill="white"/>
<path d="M22.682 43.9458C29.0408 42.1365 35.0063 35.9046 33.2363 33.0232C32.7774 32.3531 31.9252 31.951 31.2697 32.0851C30.5486 32.2191 27.6642 32.3531 24.7798 32.4201C20.5843 32.4201 19.011 32.1521 16.7821 30.9459C13.1766 29.0696 11.21 29.0696 8.85004 31.1469C6.42452 33.2242 5.90009 35.7036 7.21118 38.9871C9.11226 43.7448 15.7988 45.9561 22.682 43.9458Z" fill="white"/>
<path d="M825.527 38.9871C827.035 38.25 828.084 37.0438 828.674 35.3686C829.526 33.1572 829.461 32.6212 828.412 30.3428C826.838 27.1264 822.25 24.714 816.612 24.2449C813.006 23.9769 812.482 24.1109 811.826 25.2501C810.843 27.1264 811.826 30.1418 814.645 34.0954C818.513 39.4562 821.791 40.9304 825.527 38.9871Z" fill="white"/>
</svg>
