<svg width="115" height="115" viewBox="0 0 115 115" fill="none" xmlns="http://www.w3.org/2000/svg">
<path d="M63.25 0V17.25H86.25L62.3516 41.1484C55.9951 36.9482 48.4482 34.5 40.25 34.5C18.0137 34.5 0 52.5137 0 74.75C0 96.9863 18.0137 115 40.25 115C62.4863 115 80.5 96.9863 80.5 74.75C80.5 66.5518 78.0518 59.0049 73.8516 52.6484L97.75 28.75V51.75H115V0H63.25ZM40.25 51.75C52.9629 51.75 63.25 62.0371 63.25 74.75C63.25 87.4629 52.9629 97.75 40.25 97.75C27.5371 97.75 17.25 87.4629 17.25 74.75C17.25 62.0371 27.5371 51.75 40.25 51.75Z" fill="black" fill-opacity="0.03"/>
</svg>
